# xmcd
#
# Track frame offsets:
#	150
#	16077
#	34509
#	48241
#	66618
#	81701
#	101528
#	114149
#	129953
#	148132
#	162866
#	181540
#	196774
#	210144
#
# Disc length: 2976 seconds
#
# Revision: 0
# Processed by: cddbd v1.5.1PL2 Copyright (c) Steve Scherf et al.
# Submitted via: dBpowerAMP V4.0
#
DISCID=ad0b9e0e
DTITLE=Steve Cheseborough - Ham Hocks and Gravy
DYEAR=2003
DGENRE=Blues
TTITLE0=My Baby (Carter)
TTITLE1=Spike Driver (Hurt)
TTITLE2=Big Road Blues (T. Johnson)
TTITLE3=Special Rider (James)
TTITLE4=Your Biscuits are Big Enough For Me (Carter)
TTITLE5=Lord, I Want You To Help Me (trad.)
TTITLE6=Kind Hearted Woman (R. Johnson)
TTITLE7=Old Devil (Carter)
TTITLE8=What Have I Done (Rogers)
TTITLE9=Ham Hound Crave (Lacy)
TTITLE10=Don't Do It No More (Carter)
TTITLE11=Pony Blues (Patton)
TTITLE12=I Got The Blues, I Can't Be Satisfied (Hurt)
TTITLE13=Don't Mash My Digger So Deep (Hurt)
EXTD=
EXTT0=
EXTT1=
EXTT2=
EXTT3=
EXTT4=
EXTT5=
EXTT6=
EXTT7=
EXTT8=
EXTT9=
EXTT10=
EXTT11=
EXTT12=
EXTT13=
PLAYORDER=
